<?xml version="1.0" encoding="UTF-8"?>
<svg xmlns="http://www.w3.org/2000/svg" width="2200" height="1450" viewBox="0 0 2200 1450">
  <defs>
    <marker id="arrow" markerWidth="12" markerHeight="12" refX="10" refY="6" orient="auto" markerUnits="strokeWidth">
      <path d="M0,0 L0,12 L11,6 z" fill="#34404c"/>
    </marker>
    <symbol id="icon-pc" viewBox="0 0 64 64">
      <rect x="10" y="12" width="44" height="32" rx="4" fill="#e9f7ff" stroke="#2980a6" stroke-width="4"/>
      <path d="M24 52h16M32 44v8" stroke="#2980a6" stroke-width="4" stroke-linecap="round"/>
    </symbol>
    <symbol id="icon-phone" viewBox="0 0 64 64">
      <rect x="20" y="8" width="24" height="48" rx="5" fill="#e9f7ff" stroke="#2980a6" stroke-width="4"/>
      <circle cx="32" cy="49" r="2.5" fill="#2980a6"/>
    </symbol>
    <symbol id="icon-nginx" viewBox="0 0 64 64">
      <path d="M32 5 55 18v28L32 59 9 46V18z" fill="#009639"/>
      <text x="32" y="42" text-anchor="middle" font-size="29" font-family="Arial" font-weight="700" fill="#fff">N</text>
    </symbol>
    <symbol id="icon-vue" viewBox="0 0 64 64">
      <path d="M4 10h13l15 26 15-26h13L32 58z" fill="#41b883"/>
      <path d="M17 10h10l5 9 5-9h10L32 36z" fill="#35495e"/>
    </symbol>
    <symbol id="icon-spring" viewBox="0 0 64 64">
      <circle cx="32" cy="32" r="26" fill="#6db33f"/>
      <path d="M17 38c12 7 26 3 32-12-8 8-17 7-25 3 4-7 12-12 24-12-2-3-8-5-15-5-15 0-25 11-25 24 0 8 4 14 10 17-2-4-2-9-1-15z" fill="#fff"/>
    </symbol>
    <symbol id="icon-mysql" viewBox="0 0 64 64">
      <ellipse cx="32" cy="14" rx="24" ry="8" fill="#dff1ff" stroke="#00758f" stroke-width="3"/>
      <path d="M8 14v28c0 5 11 9 24 9s24-4 24-9V14" fill="#dff1ff" stroke="#00758f" stroke-width="3"/>
      <path d="M8 28c0 5 11 9 24 9s24-4 24-9" fill="none" stroke="#00758f" stroke-width="3"/>
    </symbol>
    <symbol id="icon-redis" viewBox="0 0 64 64">
      <path d="M32 8 58 20 32 32 6 20z" fill="#d82c20"/>
      <path d="M6 29 32 41 58 29v8L32 50 6 37z" fill="#a41e17"/>
      <path d="M6 39 32 51 58 39v8L32 60 6 47z" fill="#d82c20"/>
    </symbol>
    <symbol id="icon-rabbit" viewBox="0 0 64 64">
      <rect x="8" y="18" width="48" height="34" rx="6" fill="#ff6600"/>
      <rect x="17" y="8" width="9" height="22" rx="3" fill="#ff6600"/>
      <rect x="33" y="8" width="9" height="22" rx="3" fill="#ff6600"/>
      <circle cx="25" cy="34" r="4" fill="#fff"/><circle cx="42" cy="34" r="4" fill="#fff"/>
    </symbol>
    <symbol id="icon-docker" viewBox="0 0 64 64">
      <path d="M14 31h43c-2 15-12 23-27 23-11 0-19-5-23-14H3v-9h11z" fill="#2496ed"/>
      <rect x="16" y="20" width="8" height="8" fill="#2496ed"/><rect x="26" y="20" width="8" height="8" fill="#2496ed"/><rect x="36" y="20" width="8" height="8" fill="#2496ed"/>
      <rect x="26" y="10" width="8" height="8" fill="#2496ed"/><rect x="36" y="10" width="8" height="8" fill="#2496ed"/>
    </symbol>
    <symbol id="icon-pay" viewBox="0 0 64 64">
      <rect x="8" y="8" width="48" height="48" rx="12" fill="#1677ff"/>
      <text x="32" y="43" text-anchor="middle" font-size="31" font-family="Microsoft YaHei,Arial" font-weight="700" fill="#fff">支</text>
    </symbol>
    <symbol id="icon-doc" viewBox="0 0 64 64">
      <path d="M16 7h24l8 8v42H16z" fill="#eaf6ff" stroke="#2980a6" stroke-width="4"/>
      <path d="M39 7v11h11M23 29h18M23 39h18M23 49h12" stroke="#2980a6" stroke-width="4" stroke-linecap="round"/>
    </symbol>
    <style><![CDATA[
      .canvas{fill:#fbfcfe;stroke:#1f2933;stroke-width:3}
      .title{font:700 42px 'Microsoft YaHei','SimHei',Arial,sans-serif;fill:#1f2933}
      .subtitle{font:18px 'Microsoft YaHei','SimHei',Arial,sans-serif;fill:#53606c}
      .zone{fill:#ffffff;stroke:#58aebe;stroke-width:2.5;stroke-dasharray:11 8}
      .zone-title{font:700 24px 'Microsoft YaHei','SimHei',Arial,sans-serif;fill:#0b6178}
      .box{stroke:#2f8fa3;stroke-width:2.5;rx:12;ry:12}
      .client{fill:#f8fbff}
      .front{fill:#eef8ff}
      .gateway{fill:#effaf2}
      .backend{fill:#fffdf1}
      .domain{fill:#fff9e8;stroke:#d4a340;stroke-width:2.2}
      .infra{fill:#f6f1ff}
      .external{fill:#f2fbff}
      .ops{fill:#f4fbf3}
      .box-title{font:700 21px 'Microsoft YaHei','SimHei',Arial,sans-serif;fill:#1f2933}
      .box-text{font:16px 'Microsoft YaHei','SimHei',Arial,sans-serif;fill:#35424f}
      .small-text{font:14px 'Microsoft YaHei','SimHei',Arial,sans-serif;fill:#35424f}
      .mini{fill:#cceef7;stroke:#317d8f;stroke-width:1.6}
      .mini-text{font:14px 'Microsoft YaHei','SimHei',Arial,sans-serif;fill:#203040}
      .arrow{stroke:#34404c;stroke-width:2.5;fill:none;marker-end:url(#arrow)}
      .line{stroke:#34404c;stroke-width:2.5;fill:none}
      .dash-arrow{stroke:#34404c;stroke-width:2.3;stroke-dasharray:8 6;fill:none;marker-end:url(#arrow)}
      .label-bg{fill:#fbfcfe;stroke:none}
      .label{font:15px 'Microsoft YaHei','SimHei',Arial,sans-serif;fill:#4b5563}
      .section-label{font:700 18px 'Microsoft YaHei','SimHei',Arial,sans-serif;fill:#0f5667}
      .icon{width:40px;height:40px}
      .icon-lg{width:48px;height:48px}
    ]]></style>
  </defs>

  <rect x="20" y="20" width="2160" height="1410" rx="8" class="canvas"/>
  <text x="1100" y="78" text-anchor="middle" class="title">MallFei B2C 电商平台系统架构图</text>
  <text x="1100" y="112" text-anchor="middle" class="subtitle">HTTPS 接入 · Vue 前后端分离 · Nginx 反向代理 · Spring Boot 单体多模块 · Docker Compose · MySQL / Redis / RabbitMQ</text>

  <!-- 终端访问层 -->
  <rect x="70" y="155" width="320" height="430" rx="10" class="zone"/>
  <text x="230" y="195" text-anchor="middle" class="zone-title">终端访问层</text>

  <rect x="115" y="245" width="230" height="100" rx="12" class="box client"/>
  <use href="#icon-pc" x="135" y="272" width="45" height="45"/>
  <text x="255" y="284" text-anchor="middle" class="box-title">PC 浏览器</text>
  <text x="255" y="316" text-anchor="middle" class="box-text">后台管理端</text>

  <rect x="115" y="400" width="230" height="100" rx="12" class="box client"/>
  <use href="#icon-phone" x="138" y="426" width="44" height="44"/>
  <text x="255" y="439" text-anchor="middle" class="box-title">移动端 / H5</text>
  <text x="255" y="471" text-anchor="middle" class="box-text">C 端商城</text>

  <path d="M345 295 H455" class="line"/>
  <path d="M345 450 H455" class="line"/>
  <path d="M455 295 V450" class="line"/>
  <path d="M455 372 H520" class="arrow"/>
  <rect x="408" y="350" width="90" height="26" class="label-bg"/>
  <text x="453" y="369" text-anchor="middle" class="label">HTTPS</text>

  <!-- 接入与前端部署层 -->
  <rect x="520" y="155" width="760" height="430" rx="10" class="zone"/>
  <text x="900" y="195" text-anchor="middle" class="zone-title">接入与前端部署层</text>

  <rect x="565" y="255" width="260" height="120" rx="12" class="box gateway"/>
  <use href="#icon-nginx" x="588" y="291" width="48" height="48"/>
  <text x="720" y="292" text-anchor="middle" class="box-title">Nginx 接入网关</text>
  <text x="720" y="324" text-anchor="middle" class="box-text">证书终止 / 路由转发</text>
  <text x="720" y="352" text-anchor="middle" class="box-text">静态资源 / API 反代</text>

  <rect x="910" y="215" width="270" height="110" rx="12" class="box front"/>
  <use href="#icon-vue" x="932" y="247" width="46" height="46"/>
  <text x="1070" y="252" text-anchor="middle" class="box-title">mall-admin</text>
  <text x="1070" y="284" text-anchor="middle" class="box-text">Vue 后台管理前端</text>

  <rect x="910" y="395" width="270" height="110" rx="12" class="box front"/>
  <use href="#icon-vue" x="932" y="427" width="46" height="46"/>
  <text x="1070" y="432" text-anchor="middle" class="box-title">mall-h5</text>
  <text x="1070" y="464" text-anchor="middle" class="box-text">Vue / H5 商城前端</text>

  <path d="M825 315 H910" class="arrow"/>
  <path d="M825 315 H865 V450 H910" class="arrow"/>
  <rect x="835" y="292" width="78" height="26" class="label-bg"/>
  <text x="874" y="311" text-anchor="middle" class="label">静态页</text>

  <!-- 外部能力层 -->
  <rect x="1340" y="155" width="790" height="430" rx="10" class="zone"/>
  <text x="1735" y="195" text-anchor="middle" class="zone-title">外部能力与接口支撑</text>

  <rect x="1395" y="245" width="270" height="105" rx="12" class="box external"/>
  <use href="#icon-doc" x="1418" y="275" width="44" height="44"/>
  <text x="1558" y="282" text-anchor="middle" class="box-title">Swagger / OpenAPI</text>
  <text x="1558" y="314" text-anchor="middle" class="box-text">接口文档与联调</text>

  <rect x="1810" y="245" width="270" height="105" rx="12" class="box external"/>
  <use href="#icon-pay" x="1832" y="276" width="44" height="44"/>
  <text x="1973" y="282" text-anchor="middle" class="box-title">支付宝开放平台</text>
  <text x="1973" y="314" text-anchor="middle" class="box-text">支付发起 / 异步回调</text>

  <rect x="1605" y="405" width="270" height="105" rx="12" class="box external"/>
  <text x="1740" y="442" text-anchor="middle" class="box-title">后台运营入口</text>
  <text x="1740" y="474" text-anchor="middle" class="box-text">商品 / 订单 / 售后管理</text>

  <!-- 后端应用层 -->
  <rect x="70" y="645" width="2060" height="445" rx="10" class="zone"/>
  <text x="1100" y="685" text-anchor="middle" class="zone-title">后端业务层：Spring Boot 单体多模块应用</text>

  <rect x="125" y="765" width="250" height="125" rx="12" class="box backend"/>
  <use href="#icon-spring" x="145" y="803" width="48" height="48"/>
  <text x="270" y="802" text-anchor="middle" class="box-title">mall-start</text>
  <text x="270" y="834" text-anchor="middle" class="box-text">应用启动入口</text>
  <text x="270" y="862" text-anchor="middle" class="box-text">聚合业务模块</text>

  <rect x="455" y="720" width="1280" height="325" rx="12" class="box backend"/>
  <text x="1095" y="758" text-anchor="middle" class="box-title">核心业务域</text>

  <rect x="510" y="805" width="260" height="90" rx="10" class="domain"/>
  <text x="640" y="836" text-anchor="middle" class="section-label">账号与权限域</text>
  <text x="640" y="866" text-anchor="middle" class="small-text">mall-user / mall-auth</text>

  <rect x="820" y="805" width="260" height="90" rx="10" class="domain"/>
  <text x="950" y="836" text-anchor="middle" class="section-label">商品与内容域</text>
  <text x="950" y="866" text-anchor="middle" class="small-text">mall-product / mall-file</text>

  <rect x="1130" y="805" width="260" height="90" rx="10" class="domain"/>
  <text x="1260" y="836" text-anchor="middle" class="section-label">交易履约域</text>
  <text x="1260" y="866" text-anchor="middle" class="small-text">cart / order / stock</text>

  <rect x="1440" y="805" width="240" height="90" rx="10" class="domain"/>
  <text x="1560" y="836" text-anchor="middle" class="section-label">支付售后域</text>
  <text x="1560" y="866" text-anchor="middle" class="small-text">mall-pay / aftersale</text>

  <rect x="600" y="930" width="260" height="75" rx="10" class="domain"/>
  <text x="730" y="960" text-anchor="middle" class="section-label">后台运营域</text>
  <text x="730" y="987" text-anchor="middle" class="small-text">mall-admin</text>

  <rect x="940" y="930" width="260" height="75" rx="10" class="domain"/>
  <text x="1070" y="960" text-anchor="middle" class="section-label">公共支撑域</text>
  <text x="1070" y="987" text-anchor="middle" class="small-text">mall-common</text>

  <rect x="1280" y="930" width="260" height="75" rx="10" class="domain"/>
  <text x="1410" y="960" text-anchor="middle" class="section-label">测试支撑域</text>
  <text x="1410" y="987" text-anchor="middle" class="small-text">mall-test-support</text>

  <rect x="1810" y="775" width="250" height="125" rx="12" class="box backend"/>
  <text x="1935" y="812" text-anchor="middle" class="box-title">运行形态</text>
  <text x="1935" y="844" text-anchor="middle" class="box-text">单 JVM / 单进程</text>
  <text x="1935" y="872" text-anchor="middle" class="box-text">模块内协作调用</text>

  <path d="M695 375 V615 H250 V765" class="arrow"/>
  <path d="M695 375 V615 H1095 V720" class="arrow"/>
  <rect x="760" y="593" width="100" height="26" class="label-bg"/>
  <text x="810" y="612" text-anchor="middle" class="label">API 反代</text>
  <path d="M375 827 H455" class="arrow"/>
  <path d="M1735 837 H1810" class="arrow"/>
  <path d="M1395 298 H1260 V720" class="dash-arrow"/>
  <path d="M1945 350 V720 H1560 V805" class="dash-arrow"/>
  <rect x="1855" y="512" width="115" height="26" class="label-bg"/>
  <text x="1912" y="531" text-anchor="middle" class="label">支付回调</text>

  <!-- 数据与中间件层 -->
  <rect x="70" y="1135" width="1390" height="235" rx="10" class="zone"/>
  <text x="765" y="1175" text-anchor="middle" class="zone-title">数据与中间件层</text>

  <rect x="125" y="1235" width="230" height="90" rx="12" class="box infra"/>
  <use href="#icon-mysql" x="145" y="1257" width="44" height="44"/>
  <text x="260" y="1268" text-anchor="middle" class="box-title">MySQL 8.0</text>
  <text x="260" y="1298" text-anchor="middle" class="small-text">核心业务数据</text>

  <rect x="420" y="1235" width="230" height="90" rx="12" class="box infra"/>
  <use href="#icon-redis" x="438" y="1258" width="44" height="44"/>
  <text x="555" y="1268" text-anchor="middle" class="box-title">Redis 7</text>
  <text x="555" y="1298" text-anchor="middle" class="small-text">登录态 / 缓存</text>
  <text x="555" y="1321" text-anchor="middle" class="small-text">库存原子能力</text>

  <rect x="715" y="1235" width="230" height="90" rx="12" class="box infra"/>
  <use href="#icon-rabbit" x="733" y="1258" width="44" height="44"/>
  <text x="853" y="1268" text-anchor="middle" class="box-title">RabbitMQ 3</text>
  <text x="853" y="1298" text-anchor="middle" class="small-text">订单 / 支付事件</text>
  <text x="853" y="1321" text-anchor="middle" class="small-text">异步解耦</text>

  <rect x="1010" y="1235" width="230" height="90" rx="12" class="box infra"/>
  <text x="1125" y="1268" text-anchor="middle" class="box-title">文件存储</text>
  <text x="1125" y="1298" text-anchor="middle" class="small-text">头像 / 商品图片</text>

  <rect x="1290" y="1235" width="130" height="90" rx="12" class="box infra"/>
  <text x="1355" y="1268" text-anchor="middle" class="box-title">SQL</text>
  <text x="1355" y="1298" text-anchor="middle" class="small-text">初始化</text>

  <path d="M1095 1045 V1110" class="line"/>
  <path d="M1095 1110 H240 V1235" class="arrow"/>
  <path d="M1095 1110 H535 V1235" class="arrow"/>
  <path d="M1095 1110 H830 V1235" class="arrow"/>
  <path d="M1095 1110 H1125 V1235" class="arrow"/>
  <rect x="1120" y="1090" width="112" height="26" class="label-bg"/>
  <text x="1176" y="1109" text-anchor="middle" class="label">数据访问</text>

  <!-- 工程化与质量保障层 -->
  <rect x="1515" y="1135" width="615" height="235" rx="10" class="zone"/>
  <text x="1822" y="1175" text-anchor="middle" class="zone-title">工程化与质量保障</text>

  <rect x="1560" y="1230" width="160" height="85" rx="12" class="box ops"/>
  <use href="#icon-docker" x="1580" y="1248" width="42" height="42"/>
  <text x="1665" y="1262" text-anchor="middle" class="box-title">Docker</text>
  <text x="1665" y="1292" text-anchor="middle" class="small-text">Compose 部署</text>

  <rect x="1750" y="1230" width="160" height="85" rx="12" class="box ops"/>
  <text x="1830" y="1262" text-anchor="middle" class="box-title">冒烟测试</text>
  <text x="1830" y="1292" text-anchor="middle" class="small-text">PowerShell</text>

  <rect x="1940" y="1230" width="150" height="85" rx="12" class="box ops"/>
  <text x="2015" y="1262" text-anchor="middle" class="box-title">JUnit</text>
  <text x="2015" y="1292" text-anchor="middle" class="small-text">单元 / 集成</text>

  <path d="M1640 1230 V1070 H1410 V1005" class="dash-arrow"/>
  <path d="M1830 1230 V1065 H1410 V1005" class="dash-arrow"/>
  <path d="M2015 1230 V1060 H1410 V1005" class="dash-arrow"/>
  <rect x="1560" y="1040" width="120" height="26" class="label-bg"/>
  <text x="1620" y="1059" text-anchor="middle" class="label">部署 / 验证</text>
</svg>
